<?xml version="1.0" encoding="iso-8859-1"?>
<!-- Generator: Adobe Illustrator 19.0.0, SVG Export Plug-In . SVG Version: 6.00 Build 0)  -->
<svg version="1.1" id="Layer_1" xmlns="http://www.w3.org/2000/svg" xmlns:xlink="http://www.w3.org/1999/xlink" x="0px" y="0px"
	 viewBox="0 0 511.996 511.996" style="enable-background:new 0 0 511.996 511.996;" xml:space="preserve">
<g>
	<g>
		<path d="M286.499,237.81l-0.859-77.96c-0.062-5.852-4.828-10.555-10.672-10.555v-25.617l25.468,25.469
			c2.094,2.086,4.812,3.125,7.562,3.125c2.719,0,5.453-1.039,7.531-3.125c4.172-4.164,4.172-10.914,0-15.086l-31.093-31.085
			l67.546-20.445V49.398l-2.484-2.977c-8.594-10.227-25.281-21.562-44.641-30.32C288.623,8.758,263.335,0,235.17,0
			c-24.023,0-46.164,8.382-62.358,23.601C156.14,39.265,146.96,61.171,146.96,85.28v10.672h42.671v60.937
			c-16.328,26.484-28.734,60.742-36.875,101.89c-6.648,33.594-10.516,71.906-11.492,113.891
			c-1.656,71.232,5.477,127.654,5.781,130.014c0.688,5.328,5.219,9.312,10.586,9.312h202.678c5.906,0,10.672-4.781,10.672-10.672
			V341.31C370.982,287.498,306.842,248.74,286.499,237.81z M317.654,47.273c5.391,3.555,9.812,7.055,13,10.18v9.242l-13,3.938
			V47.273z M169.07,74.617c2.086-13.93,8.328-26.046,18.359-35.468c12.219-11.484,29.172-17.812,47.742-17.812
			c21.86,0,43.516,6.266,61.14,14.273v41.484l-35.015,10.594c-0.016,0.008-0.039,0.016-0.062,0.023l-7.594,2.297v27.281h-42.671
			V74.617H169.07z M253.639,138.624v10.664h-42.671v-10.664H253.639z M167.171,490.652c-1.672-16.266-4.781-52.344-4.812-95.998
			h3.422c5.891,0,10.671-4.781,10.671-10.672s-4.781-10.672-10.671-10.672h-3.188c0-0.047,0-0.094,0-0.156
			c0.164-6.812,0.406-13.891,0.773-21.188h3.711c5.891,0,10.664-4.766,10.664-10.656c0-5.906-4.773-10.672-10.664-10.672h-2.359
			c0.547-7.016,1.211-14.141,2.008-21.328h2.758c5.89,0,10.671-4.781,10.671-10.672s-4.781-10.672-10.671-10.672h-0.031
			c1.047-7.109,2.234-14.25,3.578-21.336h2.015c5.891,0,10.672-4.773,10.672-10.665c0-5.031-3.492-9.242-8.18-10.367
			c6.562-27.25,15.797-53.218,28.719-74.976l58.164,0.008l0.805,73.835c0.047,4.062,2.398,7.75,6.062,9.507
			c0.203,0.094,20.522,9.922,40.397,26.165c31.375,25.625,37.969,47.406,37.969,61.172v149.343H167.171z"/>
	</g>
</g>
<g>
</g>
<g>
</g>
<g>
</g>
<g>
</g>
<g>
</g>
<g>
</g>
<g>
</g>
<g>
</g>
<g>
</g>
<g>
</g>
<g>
</g>
<g>
</g>
<g>
</g>
<g>
</g>
<g>
</g>
</svg>
