<?xml version="1.0" encoding="iso-8859-1"?>
<!-- Generator: Adobe Illustrator 19.0.0, SVG Export Plug-In . SVG Version: 6.00 Build 0)  -->
<svg xmlns="http://www.w3.org/2000/svg" xmlns:xlink="http://www.w3.org/1999/xlink" version="1.1" id="Capa_1" x="0px" y="0px" viewBox="0 0 512.001 512.001" style="enable-background:new 0 0 512.001 512.001;" xml:space="preserve" width="512px" height="512px">
<g>
	<g>
		<path d="M256.803,294.96c-14.409-20.761-33.944-37.006-56.766-47.335v-31.249c0-5.523-4.477-10-10-10h-15.69    c2.035-4.39,3.179-9.274,3.179-14.423c0-18.981-15.442-34.423-34.423-34.423c-18.982,0-34.423,15.442-34.423,34.423    c0,5.149,1.144,10.033,3.179,14.423h-15.69c-5.523,0-10,4.477-10,10v31.244c-22.825,10.324-42.354,26.587-56.768,47.348    c-16.111,23.205-24.627,50.42-24.627,78.704c0,75.892,61.738,137.946,137.675,138.329h0.654c10.706,0,21.358-1.232,31.632-3.655    c1.979-0.461,3.907-0.957,5.752-1.479l0.339-0.097c0.586-0.167,1.176-0.335,1.795-0.521l0.979-0.294    c0.803-0.248,1.605-0.505,2.415-0.768c0.934-0.304,1.856-0.619,2.81-0.955c0.885-0.314,1.778-0.638,2.649-0.961    c2.624-0.972,5.26-2.055,8.061-3.31c0.87-0.39,1.73-0.79,2.601-1.2c0.026-0.012,0.107-0.051,0.133-0.063    c0.715-0.344,1.43-0.688,2.145-1.04c0.179-0.085,0.335-0.166,0.469-0.237c1.589-0.789,3.207-1.642,4.875-2.566    c0.692-0.377,1.377-0.762,2.061-1.158c0.188-0.103,0.373-0.209,0.56-0.319l0.122-0.072c0.643-0.375,1.275-0.751,1.908-1.136    c0.253-0.15,0.506-0.302,0.76-0.461c0.612-0.377,1.226-0.762,1.838-1.147l0.149-0.094c0.036-0.022,0.071-0.044,0.106-0.067    l0.718-0.46c0.544-0.354,1.083-0.706,1.622-1.07c0.71-0.467,1.41-0.943,2.11-1.42c0.106-0.072,0.212-0.147,0.315-0.223    c0.75-0.527,1.501-1.063,2.229-1.59c1.541-1.112,3.118-2.312,4.841-3.681c0.611-0.489,1.222-0.978,1.755-1.421    c0.146-0.116,0.293-0.237,0.438-0.361c0.575-0.472,1.143-0.952,1.709-1.441c0.213-0.179,0.425-0.36,0.638-0.549    c0.578-0.5,1.145-1,1.701-1.497c0.646-0.576,1.273-1.152,1.908-1.747c0.326-0.296,0.644-0.6,0.96-0.905    c2.475-2.338,4.914-4.825,7.208-7.348c0.605-0.656,1.198-1.322,1.781-1.999c0.521-0.591,1.042-1.194,1.554-1.805    c0.241-0.283,0.482-0.574,0.723-0.865l0.337-0.406c0.708-0.86,1.405-1.72,2.062-2.56c0.688-0.871,1.367-1.762,2.009-2.618    c0.316-0.418,0.632-0.844,0.98-1.318c0.483-0.664,0.967-1.329,1.399-1.946c0.398-0.559,0.785-1.119,1.162-1.688    c1.198-1.755,2.243-3.353,3.229-4.944l0.177-0.289c0.185-0.303,0.373-0.609,0.557-0.916c1.331-2.174,2.613-4.414,3.824-6.686    c0.258-0.486,0.515-0.982,0.772-1.478c0.104-0.196,0.206-0.394,0.304-0.59c0.226-0.429,0.445-0.866,0.654-1.302    c0.834-1.659,1.573-3.21,2.234-4.677c0.34-0.742,0.67-1.484,0.989-2.236c0.32-0.732,0.632-1.465,0.934-2.208    c0.066-0.16,0.132-0.323,0.196-0.486l0.064-0.161c0.023-0.056,0.058-0.14,0.08-0.196c0.319-0.793,0.638-1.588,0.902-2.301    c0.754-1.97,1.411-3.799,2.024-5.639c0.241-0.724,0.481-1.449,0.703-2.182c0.339-1.068,0.667-2.145,0.98-3.236    c0.193-0.677,0.387-1.354,0.57-2.03c0.041-0.144,0.078-0.289,0.116-0.444l0.218-0.814c0.043-0.157,0.085-0.318,0.125-0.487    c0.162-0.629,0.323-1.267,0.465-1.86c0.189-0.773,0.366-1.546,0.536-2.319c0.08-0.334,0.153-0.668,0.225-0.995l0.031-0.14    c0.149-0.686,0.289-1.373,0.445-2.146c0.174-0.886,0.346-1.772,0.499-2.66c0.097-0.544,0.193-1.088,0.281-1.641    c0.091-0.523,0.176-1.053,0.259-1.578l0.042-0.267c0.009-0.053,0.017-0.105,0.024-0.158l0.038-0.271    c0.114-0.796,0.228-1.587,0.324-2.327c0.106-0.775,0.202-1.561,0.287-2.347c0.004-0.035,0.008-0.069,0.011-0.104    c0.053-0.449,0.1-0.89,0.145-1.329c0.078-0.76,0.157-1.53,0.233-2.372c0.081-0.968,0.151-1.936,0.207-2.844    c0.062-0.889,0.112-1.778,0.15-2.607l0.047-1.052c0.002-0.043,0.004-0.086,0.006-0.128c0.028-0.692,0.048-1.385,0.069-2.177    c0.003-0.093,0.004-0.186,0.004-0.279v-0.149c0.018-0.914,0.028-1.837,0.028-2.759    C281.429,345.385,272.913,318.167,256.803,294.96z M143.103,177.53c7.953,0,14.423,6.47,14.423,14.423s-6.47,14.423-14.423,14.423    c-7.954,0-14.423-6.47-14.423-14.423S135.15,177.53,143.103,177.53z M133.102,491.581    c-60.539-5.107-108.329-56.153-108.329-117.91c0-48.925,29.464-92.151,75.062-110.123c3.821-1.506,6.333-5.196,6.333-9.303    v-27.869h73.869v27.85v36.9c-7.977-3.565-16.479-5.978-25.188-7.114c-0.73-0.098-1.471-0.185-2.196-0.26    c-0.709-0.074-1.43-0.146-2.141-0.199c-0.437-0.038-0.867-0.069-1.305-0.098c-0.418-0.035-0.844-0.06-1.263-0.075    c-0.342-0.02-0.678-0.038-1.021-0.049c-0.474-0.021-0.948-0.041-1.422-0.051c-0.073-0.001-0.146-0.003-0.221-0.003h-0.03    c-1.246-0.033-2.397-0.044-3.807-0.015l-1.024,0.029c-2.307,0.073-4.656,0.241-7.165,0.512c-0.216,0.011-0.432,0.029-0.647,0.053    c-7.185,0.827-14.269,2.531-21.053,5.063c-7.558,2.818-14.702,6.636-21.226,11.341c-23.574,16.955-37.648,44.398-37.648,73.41    c0,46.431,35.254,84.863,80.422,89.87V491.581z M143.102,444.092h-0.164c-38.74-0.089-70.258-31.681-70.258-70.422    c0-22.593,10.963-43.966,29.336-57.181c5.084-3.667,10.645-6.638,16.528-8.832c5.094-1.901,10.4-3.2,15.785-3.865    c0.184-0.011,0.367-0.026,0.552-0.047c2.203-0.251,4.222-0.403,6.13-0.463l0.918-0.026c0.333-0.007,0.671-0.007,1.011-0.007    c0.63,0.003,1.257,0.006,1.886,0.024c0.096,0.003,0.191,0.004,0.287,0.004h0.047c0.314,0.008,0.629,0.023,0.943,0.037    c0.044,0.002,0.089,0.004,0.133,0.005c0.208,0.006,0.409,0.02,0.669,0.035c0.097,0.006,0.194,0.01,0.291,0.013    c0.127,0.004,0.257,0.011,0.383,0.022c0.071,0.006,0.142,0.012,0.213,0.016c0.343,0.023,0.679,0.045,1.021,0.076    c0.055,0.005,0.109,0.009,0.164,0.013c0.535,0.039,1.077,0.095,1.628,0.152c0.531,0.054,1.063,0.117,1.62,0.192    c11.553,1.507,22.603,5.874,31.957,12.629c0.002,0.002,0.005,0.003,0.007,0.005c0.002,0.001,0.003,0.003,0.005,0.005    c12.644,9.1,22.026,22.283,26.421,37.123c0.015,0.048,0.029,0.096,0.044,0.144c0.141,0.449,0.266,0.898,0.385,1.354    c0.02,0.079,0.042,0.157,0.065,0.236c0.087,0.302,0.169,0.61,0.239,0.918c0.023,0.1,0.047,0.2,0.072,0.299    c0.036,0.14,0.075,0.28,0.107,0.42c0.022,0.104,0.047,0.207,0.073,0.309c0.075,0.294,0.144,0.588,0.212,0.889l0.28,1.316    c0.099,0.472,0.199,0.952,0.281,1.439c0.013,0.077,0.026,0.154,0.042,0.231c0.008,0.048,0.016,0.097,0.024,0.145    c0.088,0.485,0.167,0.971,0.247,1.464c0.009,0.06,0.018,0.12,0.028,0.182c0.003,0.019,0.006,0.037,0.008,0.053    c0.082,0.565,0.164,1.131,0.231,1.65c0.058,0.471,0.115,0.951,0.169,1.469c0.146,1.356,0.248,2.632,0.313,3.933    c0.06,1.117,0.089,2.31,0.089,3.648c0,0.59-0.008,1.181-0.024,1.763c-0.001,0.035-0.002,0.076-0.002,0.119    c-0.017,0.513-0.032,1.032-0.056,1.536l-0.021,0.433c-0.023,0.38-0.047,0.761-0.078,1.142c-0.009,0.096-0.015,0.192-0.02,0.289    c-0.009,0.166-0.021,0.336-0.04,0.503c-0.022,0.207-0.038,0.414-0.048,0.622c-0.036,0.388-0.072,0.78-0.123,1.229    c-0.153,1.451-0.368,2.983-0.64,4.554l-0.047,0.255c-0.021,0.118-0.041,0.234-0.066,0.349c-0.038,0.171-0.071,0.343-0.1,0.515    c-0.049,0.288-0.11,0.57-0.188,0.945c-0.017,0.076-0.031,0.152-0.045,0.228c-0.066,0.358-0.148,0.708-0.229,1.053    c-0.011,0.047-0.021,0.094-0.031,0.141c-0.033,0.156-0.063,0.312-0.102,0.457c-0.028,0.099-0.064,0.245-0.095,0.368    c-0.048,0.174-0.092,0.349-0.131,0.524c-0.059,0.267-0.121,0.529-0.195,0.79c-0.02,0.066-0.037,0.132-0.055,0.199    c-0.625,2.37-1.396,4.762-2.291,7.11c-0.02,0.049-0.037,0.098-0.055,0.147c-0.135,0.37-0.284,0.739-0.438,1.108    c-0.024,0.057-0.047,0.113-0.069,0.17c-0.101,0.254-0.206,0.503-0.313,0.755l-0.122,0.29c-0.114,0.272-0.228,0.543-0.365,0.849    c-0.93,2.099-1.959,4.143-3.058,6.077c-0.017,0.029-0.033,0.059-0.05,0.088c-0.163,0.295-0.333,0.59-0.51,0.879    c-0.04,0.064-0.079,0.129-0.117,0.195c-0.926,1.589-1.984,3.23-3.146,4.876c-0.023,0.034-0.048,0.067-0.071,0.102    c-0.231,0.336-0.477,0.673-0.73,1.009c-0.034,0.045-0.067,0.091-0.101,0.137c-0.216,0.297-0.432,0.587-0.654,0.878    c-0.018,0.023-0.047,0.06-0.064,0.084l-0.251,0.327c-0.151,0.195-0.301,0.392-0.458,0.581c-0.057,0.067-0.111,0.135-0.166,0.204    c-0.222,0.281-0.443,0.555-0.694,0.855c-0.368,0.443-0.736,0.887-1.109,1.319c-0.378,0.436-0.764,0.863-1.149,1.291    c-0.038,0.043-0.077,0.086-0.115,0.13c-0.332,0.359-0.664,0.712-0.996,1.058c-0.027,0.029-0.056,0.059-0.083,0.088    c-0.313,0.333-0.632,0.66-0.965,0.986c-0.111,0.109-0.22,0.221-0.326,0.335c-0.313,0.312-0.632,0.624-0.958,0.929    c-0.034,0.032-0.069,0.064-0.103,0.097c-0.385,0.369-0.776,0.738-1.177,1.098c-0.063,0.057-0.125,0.115-0.186,0.173    c-0.365,0.333-0.736,0.659-1.109,0.982c-0.435,0.376-0.877,0.742-1.32,1.11c-0.381,0.316-0.763,0.624-1.149,0.931    c-0.283,0.224-0.567,0.448-0.851,0.665c-0.139,0.102-0.281,0.211-0.421,0.32l-0.303,0.225c-0.19,0.142-0.38,0.286-0.576,0.422    c-0.085,0.06-0.17,0.121-0.254,0.183c-0.19,0.142-0.386,0.285-0.582,0.416c-0.101,0.067-0.2,0.136-0.299,0.207    c-0.287,0.207-0.574,0.409-0.869,0.602c-0.05,0.033-0.101,0.067-0.15,0.101c-0.423,0.29-0.845,0.573-1.283,0.847    c-0.049,0.031-0.098,0.062-0.146,0.094c-0.681,0.444-1.392,0.881-2.112,1.3c-0.042,0.024-0.085,0.05-0.127,0.075l-0.397,0.23    c-0.071,0.04-0.143,0.082-0.212,0.125c-0.234,0.142-0.47,0.27-0.792,0.448c-0.737,0.414-1.525,0.834-2.342,1.246    c-0.043,0.022-0.086,0.044-0.129,0.066c-0.256,0.134-0.516,0.27-0.777,0.392c-0.061,0.028-0.12,0.056-0.179,0.085    c-1.186,0.579-2.338,1.103-3.489,1.583c-0.865,0.367-1.633,0.674-2.346,0.938c-0.1,0.037-0.198,0.075-0.296,0.115    c-0.116,0.047-0.23,0.087-0.345,0.13l-0.221,0.082c-0.454,0.167-0.916,0.325-1.377,0.477c-0.118,0.038-0.234,0.079-0.351,0.122    c-0.181,0.067-0.357,0.122-0.543,0.179c-0.113,0.035-0.227,0.072-0.339,0.111c-0.306,0.106-0.613,0.198-0.951,0.301    c-0.503,0.155-1.006,0.302-1.605,0.465c-0.899,0.253-1.844,0.496-2.886,0.741c-0.021,0.005-0.04,0.009-0.061,0.014    c-0.063,0.015-0.125,0.029-0.188,0.044C153.772,443.493,148.449,444.092,143.102,444.092z M261.406,376.116    c-0.002,0.07-0.003,0.141-0.003,0.211v0.114c-0.017,0.593-0.032,1.187-0.057,1.78l-0.045,1.011    c-0.034,0.738-0.076,1.476-0.132,2.285c-0.052,0.836-0.111,1.664-0.174,2.409c-0.061,0.68-0.133,1.369-0.205,2.064    c-0.04,0.395-0.08,0.781-0.128,1.176c-0.012,0.1-0.022,0.203-0.032,0.305c-0.061,0.545-0.128,1.094-0.209,1.684    c-0.095,0.722-0.197,1.438-0.3,2.158l-0.06,0.393c-0.071,0.449-0.143,0.903-0.221,1.35c-0.01,0.055-0.018,0.11-0.027,0.165    c-0.071,0.448-0.15,0.889-0.228,1.329c-0.003,0.017-0.016,0.088-0.019,0.104c-0.128,0.742-0.273,1.483-0.409,2.176    c-0.12,0.591-0.239,1.183-0.363,1.75l-0.027,0.123c-0.051,0.23-0.102,0.467-0.159,0.703c-0.017,0.075-0.035,0.15-0.052,0.226    c-0.142,0.651-0.292,1.302-0.462,1.999c-0.124,0.52-0.256,1.04-0.388,1.553c-0.025,0.095-0.049,0.19-0.072,0.288l-0.23,0.862    c-0.028,0.103-0.054,0.204-0.08,0.309c-0.165,0.605-0.338,1.212-0.507,1.804c-0.265,0.92-0.546,1.841-0.836,2.753    c-0.016,0.048-0.03,0.096-0.045,0.144c-0.173,0.576-0.363,1.143-0.566,1.75c-0.505,1.514-1.065,3.074-1.749,4.861    c-0.228,0.614-0.473,1.22-0.726,1.851c-0.068,0.163-0.134,0.327-0.199,0.492l-0.065,0.163c-0.018,0.042-0.035,0.085-0.053,0.128    c-0.246,0.607-0.501,1.206-0.763,1.805c-0.015,0.033-0.029,0.066-0.043,0.1c-0.254,0.597-0.516,1.185-0.814,1.836    c-0.582,1.292-1.215,2.617-1.936,4.051c-0.032,0.064-0.064,0.129-0.095,0.194c-0.12,0.251-0.245,0.502-0.377,0.748    c-0.081,0.152-0.12,0.227-0.194,0.383l-0.061,0.117c-0.017,0.03-0.032,0.061-0.049,0.092c-0.24,0.462-0.48,0.925-0.705,1.351    c-1.019,1.91-2.111,3.818-3.246,5.669c-0.024,0.04-0.049,0.081-0.073,0.121c-0.148,0.25-0.302,0.499-0.453,0.746l-0.155,0.255    c-0.803,1.294-1.703,2.669-2.753,4.204c-0.029,0.044-0.059,0.089-0.089,0.134c-0.263,0.398-0.533,0.788-0.851,1.234    c-0.406,0.579-0.821,1.148-1.202,1.672c-0.265,0.358-0.528,0.717-0.819,1.102c-0.566,0.755-1.141,1.51-1.756,2.288    c-0.584,0.747-1.177,1.476-1.741,2.162l-0.352,0.424c-0.184,0.222-0.366,0.444-0.55,0.658c-0.023,0.028-0.048,0.057-0.072,0.085    c-0.419,0.501-0.847,0.995-1.274,1.479c-0.026,0.03-0.053,0.061-0.079,0.091c-0.45,0.523-0.909,1.038-1.418,1.591    c-2.01,2.209-4.105,4.346-6.227,6.349c-0.03,0.028-0.061,0.057-0.09,0.086c-0.184,0.177-0.365,0.356-0.556,0.527    c-0.051,0.046-0.102,0.092-0.152,0.14c-0.538,0.505-1.068,0.993-1.628,1.493c-0.499,0.447-0.998,0.886-1.506,1.325    c-0.04,0.035-0.08,0.07-0.12,0.105c-0.103,0.091-0.205,0.177-0.308,0.263c-0.035,0.03-0.07,0.06-0.105,0.09    c-0.48,0.415-0.96,0.822-1.447,1.221c-0.065,0.053-0.13,0.107-0.193,0.162l-0.192,0.156c-0.503,0.417-1.014,0.826-1.507,1.22    c-1.458,1.159-2.793,2.175-4.094,3.114c-0.647,0.469-1.304,0.938-1.96,1.398c-0.105,0.072-0.21,0.146-0.314,0.221    c-0.564,0.384-1.13,0.768-1.701,1.144c-0.038,0.025-0.076,0.05-0.114,0.076c-0.458,0.31-0.916,0.607-1.379,0.909l-0.699,0.447    c-0.576,0.362-1.153,0.725-1.73,1.079c-0.045,0.028-0.09,0.056-0.135,0.084c-0.105,0.068-0.213,0.129-0.338,0.203    c-0.037,0.022-0.075,0.045-0.112,0.068c-0.547,0.333-1.094,0.657-1.616,0.963l-0.254,0.148c-0.091,0.049-0.182,0.1-0.271,0.152    c-0.564,0.328-1.13,0.647-1.776,0.998c-1.527,0.847-2.933,1.586-4.307,2.265c-0.073,0.037-0.162,0.082-0.252,0.13    c-0.661,0.326-1.321,0.644-1.961,0.952c-0.757,0.357-1.506,0.705-2.262,1.044c-2.392,1.072-4.624,1.99-6.831,2.807    c-0.79,0.293-1.598,0.586-2.366,0.859c-0.779,0.274-1.558,0.54-2.329,0.791c-0.703,0.228-1.416,0.457-2.084,0.664l-0.899,0.27    c-0.497,0.148-0.999,0.292-1.497,0.433l-0.332,0.095c-1.523,0.432-3.143,0.848-4.842,1.244    c-5.587,1.318-11.298,2.223-17.068,2.708v-28.036c3.509-0.386,6.987-0.976,10.409-1.766c0.032-0.007,0.065-0.015,0.098-0.023    c0.077-0.017,0.153-0.036,0.23-0.054c1.295-0.306,2.486-0.613,3.557-0.915c0.724-0.197,1.437-0.405,2.117-0.614    c0.495-0.151,0.99-0.304,1.484-0.472c0.42-0.131,0.826-0.265,1.236-0.412c0.627-0.207,1.258-0.426,1.94-0.676l0.204-0.076    c0.257-0.095,0.511-0.19,0.769-0.292c0.973-0.362,1.985-0.767,3.035-1.213c1.432-0.596,2.926-1.273,4.44-2.013    c0.49-0.23,0.979-0.478,1.458-0.728c1.061-0.536,2.092-1.087,3.037-1.618c0.419-0.232,0.838-0.466,1.257-0.716    c0.202-0.116,0.403-0.232,0.598-0.348c0.974-0.566,1.938-1.16,2.866-1.763c0.613-0.387,1.21-0.783,1.804-1.188    c0.455-0.301,0.902-0.611,1.348-0.93c0.383-0.26,0.766-0.534,1.14-0.81c0.329-0.232,0.652-0.472,0.975-0.712l0.353-0.262    c0.108-0.08,0.215-0.161,0.32-0.245c0.049-0.036,0.099-0.073,0.147-0.11c0.396-0.302,0.793-0.615,1.212-0.946    c0.509-0.403,1.008-0.806,1.504-1.218c0.549-0.456,1.098-0.912,1.641-1.382c0.525-0.455,1.041-0.91,1.548-1.374    c0.075-0.067,0.149-0.135,0.223-0.205c0.477-0.433,0.946-0.874,1.406-1.315c0.488-0.457,0.966-0.923,1.433-1.39    c0.106-0.106,0.212-0.214,0.317-0.325c0.47-0.463,0.922-0.928,1.365-1.401c0.464-0.484,0.927-0.978,1.39-1.481    c0.085-0.093,0.169-0.188,0.252-0.284c0.423-0.47,0.845-0.941,1.262-1.422c0.465-0.537,0.921-1.084,1.354-1.606    c0.324-0.388,0.64-0.776,0.954-1.172c0.278-0.338,0.548-0.684,0.816-1.03c0.025-0.033,0.069-0.091,0.094-0.124l0.265-0.344    c0.32-0.416,0.631-0.833,0.941-1.26c0.39-0.521,0.769-1.044,1.128-1.565c1.462-2.072,2.808-4.158,4.003-6.204    c0.296-0.486,0.583-0.982,0.858-1.478c1.418-2.497,2.74-5.126,3.917-7.781c0.182-0.406,0.354-0.811,0.555-1.287l0.098-0.233    c0.148-0.353,0.295-0.703,0.437-1.057c0.252-0.606,0.493-1.212,0.715-1.817c1.127-2.96,2.101-5.982,2.896-8.985    c0.149-0.531,0.283-1.063,0.405-1.602c0.03-0.114,0.059-0.227,0.086-0.341c0.112-0.426,0.211-0.859,0.305-1.293    c0.13-0.565,0.258-1.14,0.368-1.724c0.098-0.464,0.191-0.922,0.273-1.385c0.056-0.271,0.107-0.543,0.157-0.817l0.044-0.239    c0.01-0.052,0.02-0.104,0.028-0.155c0.35-2.019,0.628-4.007,0.821-5.836c0.062-0.54,0.113-1.09,0.173-1.733    c0.014-0.157,0.026-0.319,0.036-0.482c0.035-0.365,0.064-0.733,0.085-1.096c0.037-0.471,0.067-0.95,0.102-1.509l0.031-0.637    c0.03-0.65,0.052-1.31,0.071-1.96c0.002-0.05,0.003-0.112,0.004-0.174c0.02-0.734,0.029-1.477,0.029-2.221    c0-1.696-0.038-3.237-0.115-4.679c-0.082-1.652-0.214-3.3-0.396-5.001c-0.063-0.605-0.135-1.211-0.215-1.86    c-0.085-0.664-0.179-1.318-0.284-2.047c-0.018-0.124-0.036-0.248-0.057-0.371c-0.005-0.031-0.01-0.063-0.015-0.094    c-0.093-0.575-0.186-1.142-0.286-1.708c-0.028-0.182-0.061-0.365-0.098-0.552c-0.115-0.657-0.246-1.31-0.389-1.997l-0.316-1.485    c-0.009-0.037-0.017-0.073-0.024-0.11c-0.104-0.452-0.206-0.894-0.317-1.336c-0.061-0.263-0.127-0.525-0.194-0.788    c-0.137-0.588-0.291-1.176-0.456-1.754c-0.184-0.695-0.377-1.381-0.59-2.066c-5.161-17.373-15.633-32.968-29.735-44.425v-33.501    c37.733,20.625,61.395,59.898,61.395,103.746C261.432,374.489,261.423,375.307,261.406,376.116z" fill="#FFFFFF"/>
	</g>
</g>
<g>
	<g>
		<path d="M150.265,233.642H135.94c-5.523,0-10,4.477-10,10c-0.001,4.536,3.022,8.361,7.163,9.585v13.523c0,5.523,4.477,10,10,10    c5.522,0,10-4.477,10-10v-13.523c4.14-1.224,7.162-5.049,7.162-9.585C160.265,238.119,155.788,233.642,150.265,233.642z" fill="#FFFFFF"/>
	</g>
</g>
<g>
	<g>
		<path d="M507.073,155.731c-0.036-0.883-0.087-1.767-0.152-2.65c-0.05-0.786-0.107-1.578-0.178-2.371    c-0.03-0.375-0.065-0.756-0.102-1.136l-0.048-0.513c-0.107-1.109-0.223-2.212-0.353-3.268c-0.129-1.102-0.278-2.211-0.43-3.271    c-0.063-0.454-0.132-0.913-0.2-1.372l-0.039-0.259c-0.128-0.81-0.257-1.62-0.388-2.362c-0.113-0.677-0.235-1.347-0.371-2.017    c-0.396-2.094-0.786-3.961-1.213-5.783l-0.087-0.36c-0.08-0.334-0.162-0.672-0.246-1.007c-0.596-2.476-1.272-4.965-2.022-7.429    c-0.156-0.506-0.317-1.018-0.48-1.529l-0.008-0.022c-0.068-0.226-0.14-0.451-0.215-0.671c-0.143-0.464-0.297-0.927-0.458-1.385    c-0.588-1.773-1.161-3.393-1.728-4.886c-0.284-0.765-0.575-1.522-0.88-2.279c-0.292-0.744-0.59-1.482-0.901-2.219    c-0.067-0.164-0.138-0.327-0.208-0.491l-0.068-0.159c-0.021-0.054-0.044-0.108-0.067-0.163c-0.339-0.796-0.679-1.591-1.003-2.298    c-0.86-1.925-1.689-3.682-2.533-5.371c-0.349-0.698-0.699-1.396-1.069-2.087c-0.515-0.994-1.044-1.988-1.593-2.977    c-0.34-0.614-0.682-1.227-1.028-1.834c-0.075-0.135-0.155-0.27-0.241-0.412c-0.005-0.009-0.01-0.017-0.012-0.021l-0.409-0.708    c-0.079-0.139-0.163-0.281-0.253-0.427c-0.331-0.56-0.668-1.127-0.984-1.641c-0.414-0.68-0.834-1.353-1.261-2.019    c-0.164-0.268-0.332-0.532-0.498-0.792l-0.13-0.204c-0.382-0.593-0.77-1.179-1.196-1.822c-0.505-0.75-1.01-1.499-1.494-2.185    c-0.327-0.469-0.654-0.937-0.993-1.406c-0.32-0.454-0.648-0.907-0.975-1.355l-0.121-0.167c-0.03-0.042-0.062-0.084-0.093-0.125    l-0.165-0.22c-0.481-0.642-0.959-1.279-1.416-1.875c-0.474-0.623-0.962-1.247-1.457-1.863c-0.021-0.024-0.04-0.049-0.061-0.074    c-0.282-0.357-0.564-0.704-0.839-1.043c-0.484-0.596-0.975-1.2-1.513-1.843c-0.629-0.744-1.266-1.48-1.862-2.154    c-0.587-0.675-1.182-1.342-1.732-1.946l-0.728-0.795c-0.025-0.028-0.052-0.056-0.077-0.085c-0.495-0.537-0.996-1.067-1.499-1.597    c-0.058-0.062-0.117-0.123-0.177-0.183l-0.11-0.11c-0.634-0.661-1.282-1.321-1.936-1.975    c-20.002-20.002-45.27-33.227-73.072-38.245c-24.867-4.489-50.169-2.163-73.61,6.671l-21.511-21.51    c-3.904-3.904-10.236-3.904-14.142,0l-11.086,11.086C268.498,9.387,255.853,0,241.055,0c-15.811,0-29.158,10.718-33.178,25.268    c-41.621,2.31-74.774,36.893-74.774,79.081c0,5.523,4.477,10,10,10c5.522,0,10-4.477,10-10c0-31.332,24.466-57.042,55.294-59.068    c3.303,9.909,10.988,17.83,20.753,21.441l-11.086,11.086c-3.904,3.905-3.904,10.237,0,14.143l21.506,21.505    c-8.839,23.441-11.148,48.749-6.66,73.621c5.016,27.8,18.238,53.066,38.238,73.065c26.92,26.921,62.354,40.393,97.809,40.391    c35.221-0.002,70.461-13.303,97.355-39.927l0.463-0.463c7.57-7.571,14.232-15.974,19.781-24.951    c1.067-1.715,2.08-3.43,3.022-5.117l0.195-0.351c0.288-0.517,0.577-1.038,0.878-1.596l0.479-0.891    c0.395-0.747,0.782-1.5,1.167-2.256c0.444-0.875,0.875-1.749,1.314-2.663c0.402-0.847,0.805-1.708,1.191-2.549    c1.166-2.538,2.266-5.169,3.36-8.043c0.34-0.894,0.666-1.786,1.017-2.761c0.273-0.778,0.545-1.556,0.812-2.34    c0.056-0.158,0.106-0.314,0.153-0.469c0.565-1.682,1.107-3.431,1.634-5.266c0.225-0.758,0.436-1.517,0.641-2.282    c0.058-0.196,0.11-0.393,0.162-0.593l0.044-0.164c0.188-0.717,0.368-1.426,0.543-2.143c0.073-0.286,0.145-0.573,0.211-0.866    c0.182-0.76,0.356-1.525,0.531-2.292c0.01-0.041,0.019-0.082,0.027-0.123l0.182-0.832c0.134-0.635,0.267-1.264,0.39-1.902    c0.167-0.807,0.321-1.615,0.487-2.488c0.024-0.13,0.047-0.261,0.066-0.392c0.158-0.9,0.309-1.807,0.451-2.694    c0.303-1.878,0.57-3.841,0.82-6.027c0.083-0.746,0.165-1.493,0.235-2.239c0.021-0.187,0.04-0.377,0.055-0.568    c0.076-0.763,0.139-1.523,0.189-2.223c0.023-0.279,0.046-0.559,0.063-0.845c0.055-0.762,0.103-1.518,0.144-2.267    c0.049-0.863,0.085-1.713,0.113-2.582c0.021-0.426,0.03-0.854,0.039-1.312C507.27,162.655,507.235,159.182,507.073,155.731z     M226.632,34.423c0-7.953,6.47-14.423,14.423-14.423s14.423,6.47,14.423,14.423s-6.47,14.423-14.423,14.423    S226.632,42.376,226.632,34.423z M285.29,246c-34.596-34.595-44.327-85.994-24.793-130.945c1.637-3.768,0.804-8.152-2.101-11.057    l-19.119-19.119l52.233-52.233l19.102,19.102c0.001,0.001,0.003,0.003,0.003,0.004l26.094,26.094    c-8.164,3.119-15.882,7.424-22.84,12.776c-0.584,0.446-1.168,0.906-1.752,1.381c-0.548,0.446-1.103,0.9-1.638,1.36    c-0.336,0.282-0.661,0.564-0.99,0.852c-0.32,0.271-0.64,0.555-0.947,0.841c-0.278,0.247-0.547,0.489-0.779,0.708    c-0.346,0.316-0.69,0.633-1.027,0.957c-0.052,0.049-0.103,0.099-0.153,0.149l-0.021,0.021c-0.516,0.489-1.024,0.984-1.522,1.481    c-0.381,0.38-0.761,0.762-1.183,1.202l-0.703,0.745c-1.578,1.682-3.121,3.462-4.702,5.426c-0.145,0.161-0.286,0.326-0.421,0.497    c-4.495,5.664-8.3,11.878-11.308,18.467c-3.351,7.336-5.703,15.088-6.989,23.028c-4.68,28.659,4.773,58.016,25.287,78.53    c32.831,32.832,84.936,35.079,120.414,6.681l19.828,19.828C398.846,291.97,328.958,289.669,285.29,246z M438.915,154.19    c0.008,0.085,0.017,0.17,0.026,0.254c0.042,0.353,0.078,0.701,0.114,1.104c0.053,0.573,0.106,1.147,0.148,1.72    c0.04,0.552,0.067,1.104,0.1,1.72c0.004,0.061,0.007,0.122,0.012,0.183c0.019,0.485,0.033,0.966,0.043,1.443    c0.001,0.04,0.002,0.08,0.003,0.121c0.016,0.455,0.02,0.91,0.016,1.375c-0.002,0.161,0,0.321,0.006,0.481    c0,0.438-0.005,0.882-0.021,1.326c-0.002,0.046-0.003,0.093-0.004,0.14c-0.011,0.532-0.027,1.07-0.055,1.608    c-0.004,0.08-0.007,0.159-0.01,0.239c-0.021,0.496-0.054,0.993-0.09,1.495c-0.041,0.572-0.095,1.142-0.149,1.723    c-0.045,0.492-0.097,0.978-0.161,1.528c-0.04,0.34-0.08,0.68-0.124,1.016c-0.025,0.17-0.05,0.347-0.071,0.524l-0.056,0.377    c-0.033,0.231-0.065,0.461-0.106,0.692c-0.019,0.103-0.036,0.206-0.051,0.31c-0.035,0.234-0.071,0.473-0.117,0.703    c-0.024,0.124-0.047,0.248-0.067,0.372c-0.057,0.35-0.117,0.695-0.189,1.041c-0.011,0.055-0.021,0.111-0.032,0.166    c-0.095,0.504-0.193,1.003-0.309,1.508c-0.014,0.057-0.025,0.113-0.038,0.17c-0.169,0.801-0.362,1.614-0.575,2.416    c-0.013,0.05-0.025,0.1-0.038,0.149l-0.115,0.43c-0.021,0.078-0.042,0.156-0.062,0.235c-0.067,0.275-0.146,0.542-0.245,0.884    c-0.229,0.822-0.491,1.677-0.775,2.541c-0.016,0.047-0.03,0.095-0.045,0.142c-0.086,0.273-0.173,0.55-0.271,0.818    c-0.023,0.063-0.046,0.128-0.068,0.192c-0.426,1.242-0.87,2.426-1.347,3.584c-0.353,0.874-0.679,1.633-0.995,2.32    c-0.046,0.099-0.09,0.199-0.132,0.299c-0.047,0.111-0.097,0.216-0.147,0.323l-0.103,0.227c-0.202,0.437-0.416,0.873-0.634,1.305    c-0.055,0.107-0.106,0.214-0.156,0.323c-0.083,0.178-0.171,0.346-0.263,0.521c-0.056,0.104-0.108,0.21-0.16,0.315    c-0.142,0.293-0.295,0.576-0.458,0.881c-0.248,0.468-0.501,0.93-0.811,1.473c-0.45,0.805-0.946,1.644-1.516,2.564    c-0.007,0.011-0.015,0.023-0.021,0.035c-0.037,0.059-0.075,0.12-0.111,0.18c-2.807,4.477-6.146,8.662-9.928,12.443l-0.115,0.116    c-27.458,27.33-72.083,27.278-99.476-0.116c-15.976-15.975-23.337-38.84-19.69-61.177c1.003-6.188,2.833-12.22,5.442-17.932    c2.258-4.946,5.091-9.617,8.427-13.893c0.123-0.138,0.243-0.28,0.358-0.425c1.381-1.735,2.701-3.271,4.001-4.656l0.638-0.675    c0.27-0.281,0.55-0.561,0.837-0.847c0.401-0.402,0.81-0.798,1.223-1.189c0.069-0.065,0.138-0.132,0.205-0.199l0.036-0.037    c0.209-0.198,0.428-0.397,0.694-0.642c0.035-0.032,0.069-0.064,0.104-0.096c0.152-0.144,0.306-0.278,0.478-0.43    c0.075-0.067,0.15-0.135,0.224-0.205c0.092-0.087,0.188-0.173,0.284-0.254c0.053-0.044,0.104-0.088,0.156-0.133    c0.264-0.231,0.522-0.457,0.792-0.683c0.037-0.031,0.074-0.063,0.111-0.094c0.412-0.356,0.843-0.705,1.258-1.044    c0.416-0.338,0.838-0.671,1.29-1.017c9.229-7.099,20.133-11.823,31.53-13.662c0.017-0.003,0.033-0.009,0.05-0.012    c15.364-2.499,31.304,0.19,44.894,7.57c0.044,0.024,0.088,0.047,0.132,0.071c0.417,0.218,0.823,0.447,1.23,0.685    c0.071,0.042,0.142,0.082,0.215,0.122c0.272,0.15,0.545,0.308,0.809,0.475c0.091,0.057,0.194,0.12,0.286,0.174    c0.116,0.069,0.234,0.135,0.348,0.208c0.094,0.059,0.189,0.118,0.284,0.175c0.261,0.154,0.517,0.314,0.776,0.477l1.127,0.732    c0.403,0.266,0.814,0.535,1.218,0.822c0.063,0.045,0.127,0.089,0.191,0.132c0.038,0.028,0.077,0.055,0.116,0.082    c0.406,0.282,0.807,0.57,1.212,0.863c0.043,0.031,0.086,0.063,0.13,0.095c0.479,0.357,0.959,0.715,1.395,1.051    c0.373,0.292,0.753,0.589,1.156,0.917c1.062,0.856,2.034,1.685,3.002,2.561c0.83,0.747,1.695,1.57,2.638,2.512    c0.42,0.42,0.834,0.845,1.236,1.271c0.019,0.02,0.044,0.046,0.069,0.072c0.355,0.376,0.713,0.758,1.056,1.135l0.32,0.352    c0.242,0.275,0.485,0.549,0.722,0.83c0.061,0.071,0.122,0.142,0.185,0.211c0.113,0.127,0.227,0.259,0.334,0.392    c0.13,0.162,0.266,0.32,0.405,0.474c0.249,0.3,0.501,0.604,0.785,0.959c0.915,1.132,1.847,2.368,2.769,3.674l0.137,0.199    c0.07,0.102,0.142,0.2,0.207,0.303c0.097,0.153,0.198,0.303,0.304,0.45c0.164,0.23,0.315,0.466,0.471,0.704    c0,0,0.055,0.083,0.055,0.084c0.043,0.066,0.087,0.131,0.132,0.196c0.206,0.299,0.396,0.606,0.583,0.905    c0.025,0.039,0.057,0.09,0.082,0.129c0.086,0.133,0.174,0.263,0.248,0.392c0.046,0.081,0.125,0.212,0.19,0.318    c0.09,0.16,0.185,0.317,0.283,0.472c0.146,0.229,0.287,0.458,0.419,0.695c0.033,0.06,0.066,0.119,0.102,0.178    c1.233,2.117,2.38,4.353,3.406,6.647c0.021,0.047,0.043,0.095,0.065,0.143c0.165,0.353,0.319,0.716,0.47,1.083    c0.025,0.063,0.052,0.125,0.079,0.187c0.107,0.249,0.208,0.498,0.31,0.749l0.1,0.245c0.118,0.288,0.236,0.576,0.36,0.902    c0.826,2.141,1.545,4.315,2.162,6.555c0.092,0.323,0.181,0.651,0.259,0.979c0.018,0.076,0.037,0.151,0.057,0.227    c0.47,1.78,0.881,3.688,1.223,5.672c0.007,0.041,0.015,0.082,0.022,0.123c0.074,0.402,0.138,0.814,0.197,1.23    c0.008,0.054,0.016,0.109,0.024,0.163c0.058,0.363,0.11,0.72,0.158,1.083c0.004,0.028,0.012,0.087,0.016,0.115l0.058,0.432h-0.001    C438.862,153.718,438.893,153.954,438.915,154.19z M487.18,165.533c-0.001,0.036-0.003,0.11-0.003,0.145    c-0.005,0.248-0.007,0.495-0.02,0.743c-0.004,0.069-0.007,0.139-0.009,0.209c-0.023,0.738-0.054,1.458-0.096,2.205    c-0.036,0.667-0.078,1.328-0.127,1.996c-0.005,0.059-0.009,0.117-0.012,0.176c-0.007,0.126-0.018,0.247-0.032,0.414    c-0.004,0.039-0.007,0.079-0.01,0.118c-0.046,0.633-0.098,1.261-0.16,1.888c-0.009,0.078-0.016,0.156-0.022,0.234l-0.017,0.152    c-0.004,0.036-0.007,0.072-0.011,0.108c-0.06,0.651-0.133,1.302-0.202,1.927c-0.211,1.849-0.438,3.512-0.692,5.095    c-0.127,0.788-0.259,1.582-0.397,2.37c-0.022,0.118-0.047,0.25-0.069,0.396c-0.127,0.667-0.254,1.333-0.392,1.999    c-0.01,0.045-0.019,0.09-0.027,0.136c-0.104,0.541-0.218,1.074-0.331,1.612l-0.142,0.647c-0.163,0.719-0.327,1.438-0.498,2.15    c-0.012,0.049-0.022,0.098-0.034,0.147c-0.029,0.132-0.064,0.26-0.097,0.388c-0.011,0.044-0.022,0.087-0.032,0.131    c-0.152,0.624-0.31,1.242-0.457,1.805l-0.083,0.315c-0.028,0.095-0.055,0.19-0.081,0.287c-0.168,0.631-0.342,1.257-0.551,1.965    c-0.482,1.681-0.953,3.198-1.446,4.656c-0.026,0.077-0.057,0.171-0.086,0.268c-0.242,0.713-0.489,1.417-0.714,2.06    c-0.282,0.785-0.564,1.559-0.858,2.331c-0.935,2.453-1.864,4.68-2.846,6.815c-0.352,0.767-0.716,1.545-1.064,2.279    c-0.357,0.745-0.721,1.484-1.092,2.214c-0.334,0.655-0.674,1.316-1,1.933l-0.445,0.829c-0.238,0.442-0.483,0.883-0.728,1.321    l-0.192,0.345c-0.777,1.393-1.629,2.833-2.545,4.306c-3.018,4.881-6.417,9.559-10.154,13.983l-19.825-19.825    c2.208-2.755,4.251-5.63,6.112-8.608c0.016-0.024,0.03-0.049,0.046-0.074c0.045-0.071,0.089-0.143,0.133-0.215    c0.705-1.142,1.33-2.201,1.867-3.163c0.371-0.648,0.727-1.297,1.061-1.93c0.243-0.456,0.484-0.913,0.715-1.381    c0.204-0.389,0.396-0.77,0.582-1.164c0.299-0.593,0.591-1.196,0.893-1.85l0.09-0.196c0.115-0.251,0.229-0.5,0.34-0.757    c0.431-0.941,0.86-1.943,1.287-3.001c0.593-1.439,1.17-2.974,1.717-4.564c0.185-0.509,0.355-1.031,0.518-1.547    c0.367-1.122,0.708-2.239,0.996-3.268c0.134-0.466,0.266-0.931,0.387-1.41c0.061-0.228,0.123-0.455,0.179-0.678    c0.286-1.084,0.549-2.183,0.779-3.27c0.161-0.709,0.303-1.411,0.436-2.12c0.108-0.535,0.205-1.069,0.294-1.61    c0.087-0.453,0.163-0.916,0.232-1.374c0.068-0.396,0.128-0.793,0.186-1.189l0.064-0.436c0.021-0.135,0.039-0.271,0.054-0.407    c0.01-0.061,0.019-0.122,0.026-0.183c0.063-0.469,0.12-0.944,0.177-1.419c0-0.008,0.011-0.096,0.012-0.104    c0.075-0.645,0.143-1.283,0.202-1.933c0.066-0.707,0.131-1.414,0.183-2.121c0.05-0.689,0.092-1.372,0.122-2.055    c0.007-0.106,0.011-0.213,0.014-0.32c0.031-0.645,0.051-1.289,0.064-1.927c0.023-0.667,0.03-1.334,0.03-1.994    c0-0.153-0.001-0.305-0.005-0.46c0.004-0.659-0.005-1.307-0.025-1.955c-0.015-0.669-0.036-1.345-0.064-2.027    c-0.005-0.132-0.014-0.264-0.024-0.395c-0.032-0.627-0.067-1.254-0.111-1.882c-0.052-0.709-0.117-1.419-0.179-2.078    c-0.044-0.508-0.096-1.01-0.154-1.517c-0.041-0.418-0.093-0.839-0.149-1.292c-0.006-0.042-0.019-0.137-0.024-0.178l-0.055-0.413    h0.001c-0.068-0.523-0.144-1.038-0.227-1.56c-0.093-0.644-0.193-1.281-0.308-1.903c-0.432-2.497-0.955-4.923-1.556-7.214    c-0.139-0.572-0.29-1.138-0.427-1.613c-0.767-2.784-1.694-5.594-2.746-8.319c-0.165-0.434-0.338-0.86-0.517-1.298l-0.095-0.231    c-0.145-0.355-0.288-0.706-0.439-1.056c-0.251-0.608-0.51-1.208-0.781-1.795c-1.297-2.89-2.745-5.715-4.306-8.401    c-0.271-0.482-0.553-0.954-0.848-1.422c-0.057-0.096-0.113-0.191-0.172-0.287c-0.221-0.38-0.458-0.756-0.703-1.138    c-0.308-0.491-0.625-0.989-0.96-1.481c-0.26-0.398-0.518-0.789-0.789-1.176c-0.156-0.238-0.316-0.472-0.48-0.708l-0.131-0.191    c-0.027-0.038-0.054-0.078-0.081-0.116c-1.184-1.678-2.392-3.282-3.543-4.705c-0.342-0.429-0.697-0.859-1.104-1.349    c-0.1-0.122-0.207-0.246-0.316-0.368c-0.231-0.28-0.47-0.559-0.709-0.828c-0.296-0.346-0.599-0.691-0.93-1.066    c-0.028-0.033-0.058-0.065-0.087-0.098l-0.411-0.453c-0.439-0.482-0.893-0.965-1.34-1.44c-0.028-0.03-0.067-0.07-0.104-0.109    c-0.509-0.536-1.031-1.072-1.565-1.606c-1.201-1.201-2.318-2.263-3.386-3.222c-1.209-1.095-2.505-2.2-3.82-3.261    c-0.474-0.384-0.953-0.761-1.47-1.165c-0.547-0.422-1.094-0.831-1.641-1.24c-0.101-0.076-0.202-0.151-0.305-0.225    c-0.025-0.019-0.051-0.038-0.077-0.056c-0.477-0.344-0.947-0.682-1.423-1.014c-0.141-0.104-0.287-0.206-0.438-0.307    c-0.55-0.386-1.105-0.756-1.686-1.137l-1.277-0.83c-0.035-0.022-0.07-0.045-0.105-0.067c-0.392-0.246-0.776-0.485-1.166-0.718    c-0.226-0.141-0.455-0.278-0.691-0.418c-0.513-0.32-1.038-0.628-1.565-0.92c-0.622-0.362-1.245-0.71-1.881-1.044    c-15.934-8.636-34.362-12.26-52.438-10.386L335.86,48.711c41.261-12.094,85.769-1.056,116.772,29.947    c0.578,0.578,1.15,1.162,1.71,1.746c0.046,0.048,0.092,0.095,0.139,0.142l0.088,0.088c0.408,0.431,0.816,0.862,1.219,1.299v-0.001    l0.688,0.752c0.496,0.543,0.985,1.093,1.523,1.711c0.553,0.625,1.094,1.251,1.582,1.828c0.435,0.521,0.869,1.056,1.313,1.602    c0.248,0.305,0.491,0.604,0.734,0.915c0.064,0.081,0.129,0.162,0.196,0.242c0.343,0.428,0.684,0.864,1.041,1.334    c0.443,0.579,0.877,1.158,1.314,1.741l0.199,0.269c0.28,0.386,0.563,0.775,0.837,1.164c0.031,0.044,0.063,0.088,0.095,0.132    c0.277,0.382,0.543,0.764,0.845,1.196c0.433,0.613,0.853,1.239,1.235,1.807c0.339,0.512,0.678,1.023,0.981,1.494l0.112,0.176    c0.115,0.182,0.234,0.366,0.349,0.554c0.04,0.066,0.081,0.132,0.123,0.198c0.36,0.561,0.714,1.126,1.091,1.745    c0.278,0.453,0.551,0.911,0.817,1.364c0.052,0.089,0.105,0.177,0.16,0.267l0.444,0.769c0.053,0.092,0.104,0.18,0.16,0.271    c0.311,0.545,0.616,1.095,0.917,1.635c0.463,0.837,0.915,1.686,1.354,2.535c0.023,0.045,0.046,0.09,0.07,0.134    c0.291,0.543,0.564,1.091,0.838,1.639c0.714,1.428,1.421,2.928,2.199,4.668c0.276,0.605,0.536,1.216,0.796,1.827    c0.068,0.164,0.139,0.329,0.21,0.493l0.068,0.16c0.017,0.041,0.033,0.081,0.051,0.122c0.255,0.604,0.499,1.208,0.737,1.819    c0.014,0.033,0.026,0.066,0.04,0.1c0.242,0.601,0.474,1.202,0.724,1.875c0.499,1.315,0.988,2.7,1.496,4.235    c0.022,0.068,0.045,0.136,0.069,0.203c0.092,0.259,0.18,0.522,0.26,0.785c0.052,0.171,0.077,0.253,0.138,0.421l0.101,0.323    c0.147,0.462,0.293,0.925,0.424,1.352c0.632,2.074,1.208,4.195,1.714,6.305c0.011,0.045,0.023,0.09,0.034,0.136    c0.068,0.271,0.134,0.545,0.199,0.816l0.078,0.325c0.346,1.477,0.682,3.086,1.027,4.92c0.01,0.053,0.021,0.105,0.031,0.157    c0.096,0.467,0.18,0.934,0.271,1.474c0.122,0.698,0.232,1.396,0.33,2.015l0.027,0.184c0.059,0.385,0.116,0.769,0.175,1.19    c0.133,0.935,0.261,1.876,0.377,2.863c0.115,0.94,0.212,1.875,0.298,2.761l0.049,0.529c0.028,0.293,0.057,0.587,0.079,0.875    c0.003,0.036,0.006,0.072,0.009,0.108c0.059,0.653,0.104,1.305,0.146,1.953c0.003,0.038,0.005,0.075,0.008,0.112    c0.052,0.689,0.091,1.377,0.119,2.066c0.001,0.021,0.002,0.042,0.003,0.064C487.234,159.617,487.264,162.609,487.18,165.533z" fill="#FFFFFF"/>
	</g>
</g>
<g>
	<g>
		<path d="M300.426,79.652l-9.562-9.562c2.061-3.793,1.494-8.635-1.713-11.843c-3.905-3.905-10.237-3.905-14.143,0l-10.128,10.13    c-3.905,3.905-3.905,10.237,0,14.143c1.952,1.953,4.512,2.929,7.071,2.929c1.645,0,3.287-0.409,4.771-1.215l9.562,9.561    c1.953,1.953,4.513,2.929,7.071,2.929c2.56,0,5.119-0.976,7.071-2.929C304.331,89.89,304.331,83.558,300.426,79.652z" fill="#FFFFFF"/>
	</g>
</g>
<g>
	<g>
		<path d="M152.91,133.84c-0.13-0.63-0.32-1.26-0.57-1.87c-0.25-0.6-0.56-1.18-0.92-1.72c-0.37-0.55-0.79-1.06-1.25-1.52    c-0.46-0.46-0.97-0.88-1.52-1.25c-0.54-0.36-1.12-0.67-1.721-0.92c-0.609-0.25-1.239-0.441-1.869-0.57    c-1.29-0.26-2.62-0.26-3.91,0c-0.641,0.13-1.27,0.32-1.87,0.57c-0.61,0.25-1.19,0.559-1.731,0.92    c-0.55,0.37-1.059,0.79-1.519,1.25c-0.46,0.46-0.88,0.97-1.24,1.52c-0.36,0.54-0.67,1.12-0.92,1.72    c-0.25,0.61-0.44,1.24-0.57,1.87c-0.13,0.65-0.2,1.31-0.2,1.96c0,0.65,0.07,1.31,0.2,1.95s0.32,1.27,0.57,1.87    c0.25,0.61,0.56,1.19,0.92,1.73c0.36,0.55,0.78,1.06,1.24,1.52c0.46,0.46,0.97,0.88,1.519,1.24c0.54,0.36,1.12,0.67,1.731,0.92    c0.6,0.25,1.229,0.44,1.87,0.57c0.64,0.13,1.3,0.2,1.949,0.2c0.65,0,1.311-0.07,1.961-0.2c0.63-0.13,1.26-0.32,1.869-0.57    c0.601-0.25,1.181-0.56,1.721-0.92c0.55-0.36,1.06-0.78,1.52-1.24c0.46-0.46,0.88-0.97,1.25-1.52c0.36-0.54,0.67-1.12,0.92-1.73    c0.25-0.6,0.44-1.23,0.57-1.87s0.189-1.3,0.189-1.95C153.099,135.15,153.04,134.49,152.91,133.84z" fill="#FFFFFF"/>
	</g>
</g>
<g>
</g>
<g>
</g>
<g>
</g>
<g>
</g>
<g>
</g>
<g>
</g>
<g>
</g>
<g>
</g>
<g>
</g>
<g>
</g>
<g>
</g>
<g>
</g>
<g>
</g>
<g>
</g>
<g>
</g>
</svg>
