<?xml version="1.0" encoding="iso-8859-1"?>
<!-- Generator: Adobe Illustrator 19.0.0, SVG Export Plug-In . SVG Version: 6.00 Build 0)  -->
<svg xmlns="http://www.w3.org/2000/svg" xmlns:xlink="http://www.w3.org/1999/xlink" version="1.1" id="Layer_1" x="0px" y="0px" viewBox="0 0 512 512" style="enable-background:new 0 0 512 512;" xml:space="preserve" width="512px" height="512px">
<g>
	<g>
		<path d="M475.525,71.446c0-21.887-23.932-40.36-69.211-53.419C366.009,6.402,312.626,0,255.999,0S145.991,6.402,105.686,18.026    C60.408,31.085,36.475,49.558,36.475,71.446c0,1.345,0.093,2.676,0.273,3.995l-0.273,185.406v2.068v182.323    c0,0.291,0.011,0.579,0.032,0.865c-0.022,0.407-0.032,0.808-0.032,1.204c0,20.526,23.398,36.922,69.543,48.735    C146.222,506.333,199.486,512,255.999,512s109.778-5.667,149.981-15.958c46.145-11.813,69.543-28.209,69.543-48.735    c0-0.396-0.01-0.796-0.032-1.204c0.022-0.286,0.032-0.574,0.032-0.865V262.915L475.251,75.44    C475.431,74.122,475.525,72.79,475.525,71.446z M112.019,39.984c38.303-11.047,89.437-17.132,143.98-17.132    s105.677,6.085,143.981,17.132c41.593,11.997,52.69,25.42,52.69,31.461c0,3.965-4.78,11.109-19.82,18.941c0,0-0.001,0-0.001,0.001    c-0.646,0.336-1.317,0.674-2.002,1.013c-0.371,0.183-0.755,0.367-1.137,0.55c-0.331,0.16-0.662,0.32-1.001,0.48    c-0.542,0.255-1.097,0.508-1.658,0.763c-0.208,0.095-0.414,0.189-0.625,0.283c-0.635,0.285-1.285,0.568-1.947,0.852    c-0.162,0.07-0.323,0.139-0.488,0.209c-0.688,0.292-1.392,0.586-2.108,0.879c-0.165,0.067-0.329,0.135-0.496,0.202    c-0.713,0.288-1.441,0.577-2.182,0.865c-0.2,0.078-0.401,0.155-0.603,0.233c-0.718,0.276-1.447,0.552-2.19,0.827    c-0.265,0.097-0.535,0.195-0.803,0.294c-0.699,0.256-1.405,0.511-2.126,0.764c-0.36,0.127-0.73,0.254-1.097,0.38    c-0.657,0.227-1.315,0.455-1.989,0.682c-0.502,0.168-1.018,0.336-1.531,0.504c-0.574,0.189-1.14,0.376-1.727,0.563    c-0.762,0.243-1.547,0.486-2.333,0.729c-0.371,0.115-0.732,0.231-1.109,0.345c-1.184,0.359-2.394,0.718-3.63,1.075    c-1.032,0.297-2.086,0.594-3.153,0.888c-0.134,0.037-0.264,0.075-0.398,0.112c-34.335,9.438-78.518,15.035-125.715,16.005    c-0.289,0.006-0.578,0.009-0.867,0.015c-1.332,0.025-2.667,0.049-4.004,0.069c-0.675,0.009-1.354,0.014-2.03,0.022    c-0.969,0.01-1.937,0.023-2.908,0.03c-1.66,0.011-3.324,0.017-4.991,0.017c-1.667,0-3.331-0.006-4.991-0.017    c-0.97-0.007-1.938-0.019-2.906-0.03c-0.678-0.008-1.356-0.013-2.033-0.022c-1.336-0.018-2.668-0.042-3.999-0.069    c-0.29-0.006-0.583-0.009-0.873-0.015c-47.198-0.97-91.38-6.567-125.714-16.005c-0.134-0.037-0.264-0.075-0.398-0.112    c-1.067-0.295-2.121-0.591-3.153-0.888c-1.237-0.358-2.446-0.715-3.63-1.075c-0.377-0.115-0.737-0.231-1.109-0.345    c-0.786-0.242-1.571-0.484-2.333-0.729c-0.586-0.187-1.154-0.376-1.727-0.563c-0.512-0.168-1.03-0.336-1.531-0.504    c-0.675-0.227-1.333-0.454-1.989-0.682c-0.367-0.127-0.737-0.254-1.097-0.38c-0.721-0.255-1.427-0.51-2.126-0.764    c-0.269-0.097-0.538-0.195-0.803-0.294c-0.743-0.275-1.473-0.551-2.19-0.827c-0.202-0.078-0.403-0.155-0.603-0.233    c-0.742-0.288-1.469-0.577-2.182-0.865c-0.166-0.067-0.331-0.135-0.496-0.202c-0.716-0.292-1.42-0.585-2.108-0.879    c-0.165-0.07-0.326-0.139-0.488-0.209c-0.662-0.285-1.312-0.568-1.947-0.852c-0.211-0.095-0.417-0.189-0.625-0.283    c-0.562-0.255-1.117-0.508-1.658-0.763c-0.34-0.16-0.67-0.32-1.001-0.48c-0.382-0.184-0.766-0.367-1.137-0.55    c-0.684-0.339-1.355-0.678-2.002-1.013h-0.001c-15.042-7.834-19.82-14.978-19.82-18.943    C59.328,65.404,70.425,51.981,112.019,39.984z M59.556,105.477c11.277,7.309,26.655,13.78,46.071,19.373    c0.019,0.006,0.038,0.011,0.057,0.017c35.427,10.217,80.959,16.399,129.914,17.745c0.094,0.002,0.189,0.005,0.282,0.007    c1.575,0.043,3.153,0.082,4.734,0.115c0.374,0.007,0.748,0.013,1.122,0.019c1.312,0.025,2.623,0.049,3.94,0.069    c0.763,0.01,1.53,0.016,2.294,0.024c0.947,0.01,1.895,0.023,2.844,0.029c1.724,0.013,3.452,0.018,5.182,0.018    c1.73,0,3.458-0.006,5.182-0.018c0.95-0.006,1.896-0.019,2.844-0.029c0.764-0.008,1.531-0.014,2.294-0.024    c1.316-0.018,2.628-0.043,3.94-0.069c0.374-0.007,0.748-0.013,1.122-0.019c1.583-0.033,3.161-0.072,4.737-0.115    c0.093-0.002,0.186-0.005,0.279-0.007c48.956-1.347,94.488-7.528,129.915-17.745c0.022-0.006,0.043-0.013,0.065-0.019    c19.416-5.594,34.791-12.064,46.067-19.372l0.229,155.372v2.068c0,3.101-7.9,13.44-41.191,23.494    c-3.444,1.04-7.16,2.077-11.167,3.102c-38.406,9.831-89.657,15.245-144.314,15.245s-105.909-5.414-144.314-15.245    c-42.739-10.94-52.358-23.173-52.358-26.596L59.556,105.477z M452.672,443.271L452.672,443.271    c-0.209,1.196-0.229,2.429-0.046,3.656c0.04,0.268,0.045,0.38,0.045,0.38c0,3.422-9.618,15.655-52.357,26.595    c-38.405,9.831-89.657,15.245-144.314,15.245s-105.909-5.414-144.314-15.245c-42.739-10.94-52.358-23.173-52.358-26.582    c0,0,0.003-0.115,0.046-0.394c0.184-1.227,0.165-2.46-0.046-3.656V294.005c0.401,0.237,0.82,0.47,1.232,0.704    c0.233,0.133,0.459,0.266,0.696,0.398c0.802,0.448,1.62,0.894,2.461,1.333c0.007,0.003,0.014,0.007,0.021,0.011    c0.863,0.451,1.747,0.899,2.65,1.343c0.232,0.114,0.472,0.225,0.706,0.339c0.666,0.322,1.339,0.643,2.027,0.961    c0.319,0.147,0.644,0.294,0.968,0.44c0.626,0.284,1.26,0.567,1.905,0.847c0.351,0.153,0.706,0.306,1.063,0.457    c0.646,0.275,1.3,0.548,1.963,0.82c0.358,0.146,0.714,0.294,1.078,0.44c0.718,0.288,1.449,0.575,2.185,0.859    c0.318,0.122,0.63,0.247,0.951,0.369c1.048,0.399,2.112,0.793,3.198,1.185c0.014,0.005,0.026,0.009,0.039,0.015    c1.106,0.398,2.235,0.791,3.381,1.18c0.342,0.117,0.694,0.231,1.039,0.346c0.806,0.27,1.616,0.538,2.441,0.804    c0.437,0.142,0.88,0.28,1.322,0.421c0.76,0.24,1.525,0.479,2.3,0.715c0.468,0.143,0.94,0.286,1.416,0.428    c0.783,0.234,1.575,0.467,2.373,0.698c0.471,0.136,0.939,0.273,1.415,0.408c0.864,0.246,1.741,0.488,2.623,0.73    c0.422,0.115,0.838,0.232,1.263,0.347c1.308,0.353,2.631,0.702,3.977,1.047c40.204,10.292,93.468,15.959,149.981,15.959    s109.778-5.667,149.981-15.959c1.347-0.345,2.669-0.694,3.977-1.047c0.426-0.115,0.841-0.232,1.263-0.347    c0.882-0.241,1.76-0.484,2.623-0.73c0.475-0.135,0.945-0.272,1.415-0.408c0.799-0.231,1.591-0.464,2.373-0.698    c0.474-0.142,0.946-0.284,1.416-0.428c0.776-0.238,1.541-0.476,2.3-0.715c0.442-0.141,0.885-0.279,1.322-0.421    c0.822-0.264,1.628-0.532,2.43-0.801c0.35-0.118,0.706-0.233,1.052-0.351c1.143-0.389,2.269-0.782,3.373-1.178    c0.029-0.01,0.055-0.021,0.082-0.031c1.07-0.385,2.118-0.774,3.15-1.167c0.335-0.127,0.66-0.256,0.991-0.384    c0.721-0.279,1.436-0.559,2.139-0.841c0.377-0.151,0.747-0.304,1.119-0.456c0.644-0.265,1.283-0.531,1.912-0.799    c0.374-0.16,0.746-0.319,1.114-0.48c0.62-0.271,1.231-0.543,1.835-0.816c0.345-0.157,0.692-0.312,1.032-0.47    c0.652-0.302,1.29-0.607,1.923-0.912c0.268-0.13,0.544-0.258,0.809-0.388c0.888-0.436,1.758-0.876,2.607-1.321    c0.087-0.046,0.169-0.093,0.256-0.138c0.754-0.398,1.493-0.798,2.217-1.201c0.282-0.158,0.554-0.316,0.832-0.475    c0.376-0.215,0.76-0.428,1.128-0.644V443.271z" fill="#FFFFFF"/>
	</g>
</g>
<g>
	<g>
		<path d="M408.408,60.687c-9.109-3.257-19.612-6.223-31.216-8.819c-34.234-7.658-77.275-11.875-121.192-11.875    c-43.917,0-86.957,4.217-121.191,11.877c-11.605,2.595-22.108,5.562-31.217,8.819c-4.547,1.625-7.58,5.93-7.58,10.759    c0,4.829,3.035,9.133,7.581,10.758c9.101,3.254,19.603,6.221,31.216,8.819c34.236,7.658,77.275,11.877,121.191,11.877    c43.916,0,86.957-4.217,121.192-11.877c11.613-2.597,22.115-5.565,31.216-8.819c4.547-1.625,7.58-5.93,7.58-10.759    S412.954,62.311,408.408,60.687z M255.999,80.046c-36.695,0-72.622-3.028-102.814-8.601c30.192-5.573,66.12-8.601,102.814-8.601    c36.696,0,72.622,3.028,102.814,8.601C328.622,77.018,292.694,80.046,255.999,80.046z" fill="#FFFFFF"/>
	</g>
</g>
<g>
	<g>
		<path d="M411.487,217.349c-0.102-0.403-0.235-0.8-0.382-1.193c-0.019-0.054-0.031-0.11-0.053-0.163    c-0.135-0.346-0.302-0.681-0.472-1.016c-0.048-0.095-0.083-0.195-0.135-0.29c-0.081-0.143-0.276-0.495-0.594-1.025    c-0.008-0.014-0.013-0.023-0.021-0.035c-0.021-0.035-0.049-0.081-0.072-0.118c-1.493-2.466-5.4-8.375-12.467-15.631    c-0.006-0.006-0.013-0.011-0.018-0.018c-0.451-0.461-0.916-0.929-1.395-1.404c-0.408-0.406-0.825-0.816-1.259-1.236    c-1.067-1.027-2.178-2.037-3.298-3.039c-0.192-0.171-0.372-0.351-0.567-0.522c-1.323-1.168-2.677-2.315-4.054-3.431    c-1.795-1.455-3.674-2.901-5.609-4.317c-1.431-1.041-2.891-2.061-4.377-3.058c-0.262-0.176-0.535-0.339-0.798-0.514    c-4.224-2.793-8.646-5.41-13.228-7.798c-0.874-0.454-1.764-0.903-2.661-1.347c-4.908-2.437-10.052-4.664-15.35-6.647    c-1.769-0.662-3.557-1.297-5.359-1.905c-1.193-0.399-2.411-0.796-3.66-1.191c-5.92-1.856-12.155-3.462-18.536-4.777    c-0.256-0.057-0.513-0.11-0.769-0.16l-0.224-0.045c-0.69-0.141-1.38-0.274-1.994-0.387c-2.152-0.412-4.376-0.8-6.611-1.152    c-0.382-0.066-0.763-0.126-1.152-0.181c-0.163-0.027-0.327-0.054-0.49-0.078l-0.128-0.019c-0.054-0.009-0.107-0.017-0.16-0.024    c-0.401-0.059-0.807-0.114-1.214-0.169l-0.587-0.08c-0.463-0.066-0.926-0.13-1.399-0.194l-2.174-0.278    c-0.603-0.074-1.209-0.147-1.796-0.215c-0.702-0.082-1.403-0.16-2.142-0.24l-2.265-0.229c-0.379-0.04-0.76-0.079-1.144-0.114    c-0.287-0.029-0.575-0.051-0.863-0.072c-0.87-0.079-1.744-0.147-2.582-0.213c-0.343-0.027-0.686-0.055-1.028-0.075    c-0.67-0.053-1.339-0.096-2.016-0.137c-0.345-0.027-0.697-0.05-1.049-0.066c-0.665-0.042-1.331-0.078-2.009-0.115l-0.133-0.007    c-0.332-0.018-0.665-0.034-1.003-0.048l-0.185-0.009c-0.539-0.025-1.08-0.051-1.625-0.07c-0.451-0.024-0.906-0.042-1.363-0.053    c-0.497-0.023-0.988-0.037-1.439-0.048c-0.596-0.019-1.193-0.037-1.797-0.05c-0.197-0.006-0.394-0.008-0.596-0.009    c-0.852-0.024-1.708-0.034-2.523-0.041c-2.54-0.033-5.162-0.027-7.663,0.046c-1.929,0.051-3.815,0.136-5.61,0.253    c-0.519,0.024-1.044,0.058-1.563,0.099c-1.373,0.097-2.731,0.21-4.134,0.343l-0.159,0.016c-0.631,0.063-1.261,0.125-1.886,0.197    c-0.257,0.024-0.51,0.05-0.772,0.079c-2.305,0.258-4.647,0.575-7.175,0.972c-0.268,0.041-0.545,0.086-0.816,0.134    c-0.882,0.142-1.767,0.291-2.743,0.463c-1.12,0.208-2.241,0.422-3.394,0.65c-2.474,0.5-4.911,1.05-7.149,1.61    c-0.554,0.133-1.099,0.266-1.637,0.41c-0.994,0.253-1.978,0.518-2.954,0.791c-0.477,0.13-0.951,0.262-1.42,0.403    c-0.266,0.074-0.532,0.151-0.798,0.23c-0.392,0.113-0.77,0.224-1.156,0.343c-0.942,0.28-1.88,0.572-2.9,0.891l-1.608,0.523    c-0.626,0.207-1.244,0.415-1.762,0.595c-0.312,0.104-0.624,0.213-0.936,0.321l-0.834,0.297c-0.17,0.058-0.339,0.119-0.51,0.183    c-0.497,0.176-0.983,0.352-1.419,0.514c-1.231,0.45-2.446,0.908-3.651,1.381l-1.286,0.513c-0.714,0.289-1.42,0.578-2.114,0.868    c-21.765,9.079-38.869,21.127-50.922,31.389l-34.462-30.914c-3.357-3.012-8.169-3.766-12.287-1.929    c-4.118,1.837-6.769,5.926-6.769,10.435v91.885c0,4.461,2.596,8.514,6.648,10.38c1.528,0.703,3.157,1.047,4.776,1.047    c2.675,0,5.321-0.938,7.433-2.746l35.69-30.553c8.391,7.188,17.45,13.692,27.037,19.371c6.736,3.981,13.685,7.531,20.671,10.557    c1.868,0.806,3.792,1.597,5.723,2.357c4.998,1.962,10.156,3.712,15.349,5.21c2.154,0.618,4.342,1.201,6.515,1.735    c12.94,3.165,26.26,4.769,39.589,4.769c7.883,0,15.698-0.347,23.222-1.032c2.946-0.266,5.854-0.587,8.609-0.946    c1.408-0.179,2.802-0.376,4.168-0.579c2.573-0.379,5.207-0.822,8.08-1.355c7.57-1.428,14.963-3.265,21.972-5.46    c2.91-0.911,5.878-1.926,8.841-3.027c0.003-0.001,0.006-0.001,0.009-0.002c5.35-1.996,10.572-4.255,15.506-6.703    c0.908-0.45,1.803-0.907,2.69-1.368c1.948-1.016,3.855-2.083,5.739-3.172c3.684-2.128,7.249-4.375,10.621-6.737    c1.868-1.306,3.696-2.684,5.489-4.083c0.723-0.563,1.458-1.121,2.16-1.693c0.834-0.678,1.64-1.383,2.456-2.078    c0.531-0.454,1.075-0.891,1.599-1.354c0.73-0.644,1.425-1.309,2.134-1.968c0.579-0.537,1.176-1.062,1.741-1.605    c0.914-0.883,1.781-1.749,2.656-2.637c8.829-9.065,12.736-16.048,13.152-16.815c0.231-0.425,0.433-0.862,0.607-1.306    C411.921,222.07,412.065,219.64,411.487,217.349z M123.023,241.265v-41.463l23.65,21.216L123.023,241.265z M309.475,261.838    c-2.562,0.475-4.919,0.872-7.218,1.211c-1.224,0.182-2.462,0.357-3.748,0.52c-2.492,0.326-5.1,0.612-7.753,0.852    c-6.842,0.623-13.96,0.938-21.155,0.938c-11.502,0-22.995-1.385-34.149-4.112c-1.88-0.462-3.781-0.969-5.638-1.5    c-4.499-1.298-8.979-2.819-13.312-4.518c-1.695-0.666-3.387-1.363-5.012-2.065c-6.098-2.641-12.191-5.753-18.1-9.247    c-6.329-3.748-11.92-7.638-16.676-11.278h65.523c6.311,0,11.426-5.117,11.426-11.426s-5.116-11.426-11.426-11.426h-68.53    c9.756-7.656,23.235-16.606,39.712-23.479c0.617-0.258,1.234-0.511,1.767-0.727l1.179-0.471c1.035-0.406,2.084-0.802,3.207-1.215    c0.426-0.159,0.85-0.31,1.282-0.463c0.086-0.03,0.17-0.062,0.255-0.094l0.163-0.057c0.039-0.014,0.078-0.027,0.115-0.042    l1.316-0.458c0.528-0.182,1.057-0.36,1.544-0.521l1.38-0.451c0.851-0.265,1.703-0.531,2.56-0.786    c0.045-0.014,0.088-0.026,0.133-0.04c0.27-0.083,0.534-0.161,0.809-0.24c0.064-0.018,0.127-0.037,0.191-0.056    c0.169-0.051,0.339-0.098,0.508-0.145c0.097-0.026,0.193-0.056,0.289-0.085c0.296-0.09,0.598-0.17,0.9-0.254    c0.03-0.009,0.138-0.038,0.168-0.047c0.82-0.231,1.641-0.451,2.467-0.66c0.067-0.017,0.134-0.034,0.2-0.053    c0.354-0.096,0.714-0.182,1.177-0.294c2.005-0.5,4.108-0.975,6.201-1.399c1.011-0.201,2.037-0.398,2.957-0.568    c0.8-0.141,1.607-0.277,2.413-0.406c0.075-0.013,0.15-0.024,0.225-0.038l0.423-0.07c2.177-0.342,4.191-0.615,6.153-0.833    l0.312-0.032c0.135-0.011,0.269-0.024,0.402-0.04c0.55-0.065,1.105-0.119,1.66-0.173l0.109-0.011    c1.19-0.113,2.385-0.213,3.595-0.297c0.04-0.003,0.08-0.006,0.12-0.009c0.298-0.024,0.601-0.045,0.899-0.057    c0.086-0.005,0.17-0.009,0.255-0.015c1.54-0.101,3.173-0.174,4.887-0.221c2.233-0.066,4.428-0.067,6.779-0.037    c0.754,0.006,1.501,0.016,2.242,0.037c0.114,0.003,0.227,0.006,0.341,0.006l0.056-0.002c0.058,0.002,0.118,0.005,0.176,0.006    c0.55,0.011,1.094,0.027,1.69,0.047c0.371,0.009,0.742,0.018,1.114,0.037c0.147,0.008,0.295,0.013,0.443,0.015    c0.253,0.003,0.505,0.016,0.753,0.029c0.105,0.007,0.21,0.011,0.315,0.015c0.45,0.013,0.896,0.035,1.341,0.057l0.258,0.013    c0.048,0.002,0.096,0.005,0.144,0.007c0.231,0.008,0.456,0.021,0.682,0.032l0.136,0.007c0.628,0.033,1.249,0.067,1.87,0.107    c0.081,0.006,0.161,0.01,0.242,0.014c0.13,0.006,0.26,0.014,0.386,0.024c0.082,0.007,0.164,0.014,0.247,0.018    c0.618,0.039,1.229,0.077,1.841,0.125c0.075,0.006,0.151,0.011,0.226,0.016c0.216,0.014,0.432,0.031,0.708,0.054    c0.8,0.062,1.593,0.121,2.379,0.195c0.072,0.006,0.143,0.013,0.214,0.017c0.138,0.011,0.277,0.019,0.414,0.033    c0.043,0.005,0.087,0.008,0.13,0.013c0.294,0.026,0.583,0.057,0.872,0.087l2.208,0.222c0.649,0.071,1.293,0.143,1.956,0.219    c0.543,0.062,1.082,0.127,1.609,0.192l5.113,0.69c0.195,0.035,0.392,0.069,0.59,0.094c0.197,0.025,0.39,0.057,0.583,0.091    c0.064,0.011,0.128,0.022,0.191,0.031c2.013,0.315,4.012,0.664,6.025,1.05c0.552,0.102,1.097,0.207,1.631,0.315l0.639,0.127    c0.08,0.019,0.161,0.037,0.241,0.053c1.465,0.302,2.919,0.62,4.363,0.955c-6.622,11.379-10.071,23.886-10.071,36.88    c0,15.109,4.799,29.736,13.72,42.527C316.848,260.314,313.189,261.138,309.475,261.838z M385.247,221.684    c-1.199,1.434-2.617,3.027-4.279,4.734c-0.702,0.712-1.437,1.447-2.197,2.18c-1.019,0.982-2.072,1.952-3.153,2.906    s-2.193,1.896-3.331,2.819c-2.028,1.653-4.156,3.261-6.336,4.785c-2.576,1.805-5.29,3.528-8.091,5.176    c-1.872,1.1-3.775,2.173-5.728,3.19c-0.738,0.384-1.489,0.77-2.27,1.156c-1.06,0.527-2.136,1.043-3.224,1.547    c-0.293,0.136-0.594,0.264-0.889,0.398c-0.802,0.365-1.603,0.73-2.418,1.082c-8.922-10.203-13.763-22.34-13.763-34.785    c0-10.551,3.382-20.742,9.847-29.843c0.251,0.099,0.504,0.195,0.754,0.297c1.128,0.455,2.241,0.929,3.347,1.409    c0.535,0.232,1.075,0.457,1.604,0.695c1.563,0.702,3.107,1.425,4.62,2.174c0.046,0.023,0.094,0.043,0.139,0.066    c0.762,0.376,1.512,0.754,2.256,1.141c5.482,2.855,10.701,6.078,15.485,9.558c1.608,1.176,3.187,2.393,4.689,3.61    c1.318,1.07,2.594,2.174,3.843,3.292c0.886,0.794,1.764,1.592,2.603,2.4c0.76,0.734,1.479,1.452,2.166,2.154    c0.465,0.478,0.898,0.939,1.327,1.399c0.103,0.111,0.217,0.226,0.318,0.335c0.369,0.4,0.707,0.782,1.048,1.164    c0.139,0.157,0.294,0.322,0.427,0.475c0.929,1.059,1.748,2.048,2.462,2.948C386.117,220.633,385.694,221.149,385.247,221.684z" fill="#FFFFFF"/>
	</g>
</g>
<g>
	<g>
		<path d="M288.062,212.064c-0.526-0.527-1.108-1.007-1.737-1.418c-0.617-0.41-1.28-0.766-1.977-1.051    c-0.686-0.286-1.405-0.502-2.137-0.65c-3.714-0.754-7.656,0.467-10.307,3.118c-0.526,0.526-1.006,1.12-1.417,1.738    c-0.411,0.617-0.766,1.291-1.051,1.976c-0.286,0.687-0.514,1.405-0.651,2.137c-0.149,0.743-0.229,1.485-0.229,2.228    c0,0.754,0.08,1.497,0.229,2.24c0.137,0.731,0.366,1.44,0.651,2.137c0.286,0.686,0.64,1.348,1.051,1.965    c0.411,0.628,0.891,1.211,1.417,1.737c2.125,2.137,5.073,3.359,8.078,3.359c0.743,0,1.497-0.08,2.228-0.229    c0.731-0.149,1.451-0.365,2.137-0.65c0.697-0.286,1.36-0.641,1.977-1.052c0.628-0.422,1.211-0.89,1.737-1.428    c2.125-2.124,3.348-5.062,3.348-8.077C291.41,217.137,290.187,214.189,288.062,212.064z" fill="#FFFFFF"/>
	</g>
</g>
<g>
	<g>
		<path d="M410.441,399.076c-0.086-0.158-0.328-0.591-0.721-1.238c-1.52-2.499-5.417-8.369-12.428-15.567    c-0.006-0.007-0.013-0.013-0.018-0.019c-0.609-0.623-1.25-1.261-1.91-1.909c-0.247-0.242-0.486-0.481-0.743-0.73    c-1.065-1.024-2.173-2.034-3.294-3.035c-0.192-0.171-0.371-0.35-0.564-0.521c-1.323-1.168-2.679-2.316-4.06-3.437    c-1.795-1.455-3.674-2.901-5.609-4.317c-5.722-4.165-11.913-7.988-18.416-11.376c-0.871-0.452-1.757-0.898-2.652-1.343    c-0.63-0.312-1.28-0.604-1.916-0.91c-5.982-2.87-12.274-5.446-18.767-7.633c-0.003-0.001-0.006-0.001-0.009-0.002    c-0.002,0-0.005-0.001-0.006-0.002c-1.202-0.403-2.429-0.806-3.669-1.194c-5.942-1.862-12.184-3.471-18.554-4.783    c-0.247-0.054-0.492-0.103-0.739-0.152l-0.217-0.042c-0.703-0.145-1.404-0.282-2.006-0.392c-2.124-0.408-4.35-0.796-6.618-1.153    c-0.377-0.066-0.755-0.125-1.139-0.178c-0.185-0.031-0.369-0.061-0.554-0.087l-0.215-0.032c-0.419-0.063-0.846-0.121-1.272-0.178    l-4.124-0.547c-0.595-0.073-1.194-0.145-1.796-0.215c-0.714-0.083-1.428-0.165-2.142-0.239c-0.547-0.058-1.099-0.113-1.674-0.169    l-0.58-0.059c-0.384-0.039-0.767-0.079-1.155-0.114c-0.287-0.029-0.575-0.051-0.862-0.072c-0.87-0.08-1.746-0.149-2.619-0.215    l-0.127-0.01c-0.286-0.023-0.571-0.045-0.857-0.063c-0.64-0.05-1.284-0.091-2.006-0.136c-0.354-0.029-0.715-0.053-1.076-0.07    c-0.662-0.04-1.322-0.077-1.962-0.112c-0.391-0.023-0.783-0.042-1.181-0.056c-0.595-0.03-1.19-0.058-1.789-0.078    c-0.455-0.025-0.915-0.043-1.377-0.054c-0.505-0.024-1.004-0.037-1.44-0.047l-0.239-0.008c-0.516-0.016-1.033-0.031-1.555-0.042    c-0.2-0.007-0.401-0.009-0.607-0.01c-0.859-0.024-1.721-0.037-2.502-0.04c-2.541-0.035-5.159-0.029-7.676,0.045    c-1.925,0.051-3.808,0.136-5.6,0.251c-0.522,0.024-1.049,0.059-1.571,0.102c-1.375,0.096-2.733,0.21-4.118,0.341    c-0.691,0.069-1.383,0.135-2.068,0.214c-0.239,0.023-0.483,0.049-0.769,0.08c-2.333,0.262-4.678,0.578-7.245,0.982    c-0.253,0.04-0.508,0.081-0.762,0.126c-0.881,0.142-1.765,0.29-2.727,0.461c-1.124,0.209-2.249,0.422-3.388,0.649    c-2.467,0.499-4.906,1.048-7.154,1.61c-0.553,0.133-1.097,0.265-1.634,0.409c-0.991,0.253-1.973,0.516-2.957,0.792    c-0.481,0.131-0.961,0.264-1.435,0.407c-0.26,0.073-0.521,0.147-0.782,0.225c-0.393,0.113-0.768,0.224-1.102,0.325    c-0.964,0.288-1.922,0.586-2.933,0.903l-1.648,0.537c-0.607,0.202-1.208,0.403-1.808,0.61c-0.378,0.126-0.76,0.261-1.229,0.424    l-0.446,0.162c-0.172,0.059-0.344,0.119-0.515,0.183c-0.506,0.18-1.002,0.359-1.453,0.528c-1.231,0.451-2.446,0.909-3.642,1.379    l-1.286,0.513c-0.714,0.289-1.42,0.577-2.114,0.867c-21.765,9.079-38.869,21.127-50.922,31.389l-34.462-30.914    c-3.357-3.013-8.169-3.765-12.287-1.929c-4.118,1.837-6.769,5.926-6.769,10.435v91.886c0,4.461,2.596,8.514,6.648,10.38    c1.528,0.703,3.157,1.047,4.776,1.047c2.675,0,5.321-0.938,7.433-2.746l35.69-30.553c8.39,7.187,17.449,13.692,27.035,19.368    c6.74,3.986,13.691,7.537,20.674,10.559c1.899,0.819,3.824,1.612,5.723,2.357c5.005,1.964,10.164,3.716,15.349,5.212    c2.136,0.612,4.324,1.195,6.516,1.733c12.945,3.165,26.264,4.769,39.588,4.769c7.897,0,15.711-0.347,23.222-1.032    c2.956-0.267,5.865-0.588,8.59-0.945c1.415-0.178,2.814-0.376,4.183-0.579c2.581-0.379,5.217-0.823,8.083-1.356    c7.559-1.425,14.95-3.261,21.976-5.46c2.939-0.921,5.911-1.938,8.845-3.029c1.337-0.499,2.667-1.015,3.987-1.545    c3.961-1.594,7.826-3.324,11.53-5.162c0.901-0.448,1.788-0.9,2.681-1.363c4.013-2.094,7.89-4.356,11.595-6.734    c0.287-0.184,0.584-0.36,0.868-0.546c0.085-0.055,0.165-0.113,0.249-0.168c1.234-0.808,2.452-1.627,3.644-2.462    c1.311-0.916,2.611-1.861,3.888-2.827c1.281-0.967,2.539-1.953,3.76-2.95c0.631-0.512,1.236-1.049,1.857-1.571    c1.391-1.172,2.747-2.369,4.075-3.59c0.668-0.616,1.354-1.221,2.004-1.848c0.327-0.317,0.643-0.63,0.961-0.944    c0.227-0.224,0.456-0.451,0.681-0.675c0.337-0.336,0.672-0.672,1.008-1.012c7.725-7.931,11.682-14.27,12.831-16.246    c0.163-0.282,0.271-0.475,0.322-0.571C412.291,406.585,412.291,402.478,410.441,399.076z M123.022,425.656v-41.462h0.001    l23.039,20.667c0.001,0,0.001,0.001,0.001,0.001l0.61,0.547L123.022,425.656z M309.47,446.23    c-2.554,0.476-4.909,0.872-7.213,1.211c-1.218,0.181-2.451,0.357-3.752,0.52c-2.482,0.325-5.088,0.611-7.749,0.852    c-6.83,0.623-13.946,0.938-21.152,0.938c-11.497,0-22.991-1.385-34.149-4.112c-1.897-0.466-3.799-0.972-5.638-1.5    c-4.491-1.296-8.972-2.817-13.317-4.521c-1.665-0.654-3.355-1.349-5.007-2.062c-6.094-2.638-12.185-5.751-18.099-9.248    c-6.315-3.74-11.896-7.62-16.646-11.255h65.531c6.311,0,11.426-5.117,11.426-11.426s-5.116-11.426-11.426-11.426h-68.597    c9.758-7.661,23.248-16.621,39.741-23.501c0.617-0.258,1.234-0.51,1.767-0.726l1.189-0.475c1.035-0.407,2.084-0.801,3.198-1.211    c0.433-0.161,0.865-0.315,1.304-0.472c0.051-0.018,0.103-0.037,0.154-0.056c0.056-0.019,0.127-0.045,0.151-0.053    c0.069-0.024,0.138-0.049,0.206-0.074l0.321-0.117c0.298-0.104,0.596-0.209,0.895-0.31c0.04-0.013,0.08-0.026,0.119-0.04    c0.528-0.183,1.057-0.359,1.503-0.508l1.415-0.459c0.851-0.266,1.703-0.534,2.617-0.806c0.291-0.088,0.576-0.173,0.873-0.258    c0.064-0.018,0.127-0.037,0.191-0.056l0.553-0.158c0.082-0.024,0.163-0.048,0.245-0.072c0.296-0.09,0.598-0.17,0.9-0.254    c0.025-0.008,0.129-0.035,0.155-0.043c0.825-0.231,1.649-0.452,2.479-0.664c0.067-0.017,0.134-0.034,0.2-0.053    c0.354-0.096,0.714-0.182,1.177-0.294c2.012-0.502,4.112-0.976,6.212-1.4c1.008-0.201,2.03-0.396,2.961-0.568    c0.794-0.141,1.596-0.274,2.398-0.404c0.071-0.011,0.203-0.034,0.274-0.047l0.379-0.062c2.149-0.338,4.161-0.61,6.216-0.84    l0.243-0.025c0.135-0.011,0.268-0.024,0.402-0.04c0.596-0.071,1.2-0.128,1.769-0.183c1.186-0.112,2.379-0.213,3.586-0.297    c0.043-0.002,0.087-0.006,0.13-0.009c0.288-0.024,0.582-0.046,0.871-0.057c0.095-0.005,0.189-0.009,0.283-0.016    c1.54-0.101,3.173-0.174,4.878-0.219c2.23-0.065,4.36-0.07,6.818-0.037c0.75,0.003,1.492,0.016,2.227,0.037    c0.109,0.003,0.217,0.005,0.326,0.005l0.056-0.002c0.058,0.002,0.118,0.005,0.176,0.006c0.467,0.01,0.93,0.024,1.392,0.038    l0.324,0.01c0.371,0.009,0.743,0.018,1.114,0.035c0.128,0.007,0.257,0.011,0.386,0.014c0.253,0.003,0.504,0.016,0.752,0.03    c0.115,0.007,0.231,0.013,0.346,0.016c0.53,0.016,1.055,0.042,1.578,0.069c0.067,0.003,0.135,0.007,0.202,0.009    c0.254,0.008,0.502,0.022,0.78,0.037c0.634,0.034,1.261,0.07,1.89,0.109c0.074,0.005,0.149,0.009,0.223,0.013    c0.115,0.005,0.23,0.011,0.342,0.022c0.097,0.008,0.293,0.022,0.39,0.027c0.578,0.035,1.152,0.071,1.724,0.118    c0.082,0.007,0.163,0.013,0.245,0.017l0.708,0.052c0.8,0.062,1.593,0.122,2.379,0.197c0.072,0.006,0.143,0.013,0.214,0.017    c0.138,0.011,0.277,0.019,0.414,0.033c0.043,0.005,0.087,0.008,0.13,0.013c0.304,0.026,0.603,0.058,0.903,0.089l2.213,0.224    c0.638,0.067,1.268,0.138,1.898,0.211l5.493,0.708c0.328,0.045,0.655,0.088,0.892,0.123l0.358,0.053    c0.184,0.034,0.369,0.064,0.554,0.089c0.209,0.027,0.414,0.061,0.618,0.096c0.064,0.011,0.128,0.022,0.191,0.031    c2.042,0.32,4.039,0.668,6.044,1.053c0.538,0.098,1.072,0.202,1.611,0.313l0.679,0.136c0.067,0.015,0.135,0.029,0.203,0.043    c1.464,0.301,2.917,0.62,4.36,0.955c-6.622,11.381-10.071,23.887-10.071,36.879c0,15.11,4.8,29.736,13.72,42.527    C316.845,444.707,313.184,445.531,309.47,446.23z M383.084,408.552c-0.663,0.73-1.355,1.477-2.116,2.259    c-0.702,0.712-1.437,1.447-2.2,2.182c-0.874,0.842-1.785,1.672-2.707,2.495c-1.224,1.094-2.477,2.174-3.776,3.228    c-1.097,0.895-2.225,1.77-3.367,2.628c-0.976,0.732-1.964,1.455-2.969,2.156c-0.807,0.566-1.639,1.119-2.47,1.671    c-3.592,2.381-7.391,4.633-11.341,6.694c-0.619,0.322-1.255,0.643-1.894,0.964c-0.128,0.065-0.25,0.129-0.379,0.193    c-2.123,1.052-4.304,2.064-6.532,3.027c-8.922-10.203-13.764-22.34-13.764-34.785c0-10.55,3.382-20.741,9.847-29.842    c0.253,0.101,0.508,0.197,0.76,0.298c1.128,0.456,2.241,0.929,3.347,1.409c0.53,0.231,1.066,0.452,1.592,0.689    c1.609,0.722,3.199,1.465,4.756,2.237c0.769,0.382,1.527,0.762,2.266,1.147c5.482,2.855,10.701,6.078,15.485,9.558    c1.608,1.176,3.187,2.393,4.687,3.608c2.26,1.833,4.433,3.754,6.448,5.693c0.029,0.027,0.055,0.054,0.083,0.081    c0.728,0.707,1.423,1.399,2.084,2.073c0.52,0.534,1.009,1.052,1.482,1.563c0.051,0.056,0.111,0.115,0.162,0.17    c0.355,0.384,0.679,0.751,1.008,1.119c0.154,0.173,0.323,0.354,0.471,0.523c0.168,0.191,0.313,0.367,0.473,0.553    c0.728,0.846,1.402,1.655,1.987,2.39C385.558,405.732,384.409,407.091,383.084,408.552z" fill="#FFFFFF"/>
	</g>
</g>
<g>
	<g>
		<path d="M291.181,402.312c-0.148-0.731-0.366-1.451-0.651-2.148c-0.286-0.686-0.64-1.348-1.051-1.965    c-0.411-0.628-0.891-1.212-1.417-1.738s-1.108-1.005-1.737-1.428c-0.617-0.41-1.28-0.766-1.977-1.051    c-0.686-0.286-1.405-0.502-2.137-0.651c-1.474-0.297-2.994-0.297-4.468,0c-0.72,0.15-1.44,0.366-2.137,0.651    c-0.686,0.286-1.348,0.641-1.965,1.051c-0.628,0.423-1.211,0.903-1.737,1.428s-1.006,1.109-1.417,1.738    c-0.423,0.617-0.766,1.28-1.051,1.965c-0.297,0.697-0.514,1.417-0.663,2.148c-0.148,0.731-0.217,1.485-0.217,2.228    c0,3.005,1.223,5.953,3.348,8.078c0.526,0.526,1.108,1.006,1.737,1.416c0.617,0.411,1.28,0.766,1.977,1.051    c0.686,0.286,1.405,0.503,2.137,0.651c0.731,0.149,1.485,0.229,2.228,0.229c0.743,0,1.497-0.08,2.228-0.229    c0.731-0.149,1.451-0.366,2.137-0.651c0.697-0.286,1.36-0.64,1.977-1.051c0.628-0.41,1.211-0.89,1.737-1.416    c2.125-2.125,3.348-5.073,3.348-8.078C291.41,403.797,291.33,403.042,291.181,402.312z" fill="#FFFFFF"/>
	</g>
</g>
<g>
</g>
<g>
</g>
<g>
</g>
<g>
</g>
<g>
</g>
<g>
</g>
<g>
</g>
<g>
</g>
<g>
</g>
<g>
</g>
<g>
</g>
<g>
</g>
<g>
</g>
<g>
</g>
<g>
</g>
</svg>
